PathFileType	4	(X/Y/Z)	/Users/itak/Documents/Research/Walk-IL/dataset/trc/00428_00167.trc
DataRate	CameraRate	NumFrames	NumMarkers	Units	OrigDataRate	OrigDataStartFrame	OrigNumFrames
100.000000	100.000000	4	53	mm	100.000000	294	786
Frame#	Time	RPSI			LPSI			L3			STRN			T10			C7			CLAV			RBAK			LBAK			LSHO			LUPA			LAEL			LAOL			LWTS			LWPS			LFRA			LIFD			LHPS			LHTS			RSHO			RUPA			RAEL			RAOL			RWTS			RWPS			RFRA			RIFD			RHTS			RHPS			RBHD			LFHD			RFHD			LBHD			LHIP			RHIP			RASI			LASI			LKNE			LTHI			LANK			LTIP			LTOE			LMT1			LMT5			LHEE			RKNE			RTHI			RANK			RTIP			RTOE			RMT1			RMT5			RHEE			
		X1	Y1	Z1	X2	Y2	Z2	X3	Y3	Z3	X4	Y4	Z4	X5	Y5	Z5	X6	Y6	Z6	X7	Y7	Z7	X8	Y8	Z8	X9	Y9	Z9	X10	Y10	Z10	X11	Y11	Z11	X12	Y12	Z12	X13	Y13	Z13	X14	Y14	Z14	X15	Y15	Z15	X16	Y16	Z16	X17	Y17	Z17	X18	Y18	Z18	X19	Y19	Z19	X20	Y20	Z20	X21	Y21	Z21	X22	Y22	Z22	X23	Y23	Z23	X24	Y24	Z24	X25	Y25	Z25	X26	Y26	Z26	X27	Y27	Z27	X28	Y28	Z28	X29	Y29	Z29	X30	Y30	Z30	X31	Y31	Z31	X32	Y32	Z32	X33	Y33	Z33	X34	Y34	Z34	X35	Y35	Z35	X36	Y36	Z36	X37	Y37	Z37	X38	Y38	Z38	X39	Y39	Z39	X40	Y40	Z40	X41	Y41	Z41	X42	Y42	Z42	X43	Y43	Z43	X44	Y44	Z44	X45	Y45	Z45	X46	Y46	Z46	X47	Y47	Z47	X48	Y48	Z48	X49	Y49	Z49	X50	Y50	Z50	X51	Y51	Z51	X52	Y52	Z52	X53	Y53	Z53	

295	2.94	-596.5921630859375	952.5062255859375	-3.906618118286133	-513.8384399414062	946.8619995117188	-120.551628112793	-561.37353515625	1054.216186523438	-33.26298141479492	-329.1197204589844	1240.698974609375	101.8132629394531	-576.2056884765625	1174.162231445312	-40.29765701293945	-528.2803955078125	1441.952758789062	6.407451629638672	-358.9679260253906	1354.70751953125	81.34017181396484	-628.3578491210938	1321.978271484375	60.28678512573242	-506.5426940917969	1396.309204101562	-98.17334747314453	-376.2999267578125	1413.818237304688	-114.2433547973633	-332.5605163574219	1298.149291992188	-205.9781494140625	-288.116455078125	1085.527465820312	-229.8368682861328	-389.0941162109375	1062.557250976562	-215.5921783447266	-221.5082397460938	893.4927978515625	-141.7729644775391	-229.8453674316406	872.5667114257812	-212.3787231445312	-257.1974182128906	1000.290649414062	-224.5756988525391	-198.8033294677734	726.5266723632812	-130.4567565917969	-216.3173065185547	792.8952026367188	-202.0300140380859	-193.9903106689453	806.7308349609375	-136.0361175537109	-540.2504272460938	1408.384033203125	182.7245330810547	-588.0422973632812	1346.224243164062	243.6997375488281	-592.34765625	1059.291259765625	304.7207336425781	-621.1990966796875	1036.84619140625	247.3622436523438	-455.8028869628906	876.4815673828125	317.9288024902344	-537.4093017578125	849.6516723632812	340.4793090820312	-585.9354248046875	1001.5576171875	317.322265625	-434.3667297363281	719.4287109375	335.5863647460938	-433.1836853027344	780.3475952148438	342.2974548339844	-507.3646850585938	767.1985473632812	351.8297424316406	-502.8593139648438	1634.7197265625	113.7589111328125	-309.3612976074219	1657.89697265625	43.98416137695312	-373.6393432617188	1659.952392578125	157.8229064941406	-428.6822814941406	1636.2734375	-48.59597015380859	-320.2019653320312	855.32275390625	-129.8168640136719	-585.3905029296875	844.1123657226562	175.7849731445312	-464.5087585449219	884.4089965820312	186.4628143310547	-305.5912475585938	897.873779296875	-9.411426544189453	-194.5970001220703	460.6284484863281	-19.66882705688477	-211.3136138916016	616.2839965820312	-46.0978889465332	-206.4134368896484	44.95850372314453	-54.51275634765625	-179.4173583984375	304.4311828613281	-33.67677688598633	-62.88491058349609	79.37310791015625	122.3051605224609	-138.4223480224609	66.86786651611328	107.7046356201172	-80.2178955078125	69.40276336669922	13.84916496276855	-278.6545715332031	40.06037902832031	-43.52500152587891	-557.6141357421875	449.7976684570312	110.374626159668	-549.8499755859375	704.7052001953125	188.0131378173828	-619.2958374023438	43.80406951904297	21.51617240905762	-571.1060180664062	302.3231811523438	93.31552886962891	-405.8348693847656	45.22501373291016	74.11918640136719	-447.5824890136719	49.65776443481445	13.48013114929199	-510.068603515625	47.36339950561523	102.1510848999023	-659.902587890625	36.78199005126953	-49.30160903930664	
296	2.95	-591.9602661132812	952.0293579101562	-1.999462485313416	-508.7088317871094	946.3224487304688	-118.3453521728516	-556.9742431640625	1053.947387695312	-31.39335823059082	-324.6732788085938	1239.814208984375	104.8376770019531	-571.388916015625	1173.482788085938	-38.15270233154297	-523.31103515625	1441.247924804688	8.729084014892578	-354.3309020996094	1353.836669921875	84.22408294677734	-623.6929321289062	1321.370971679688	62.22514724731445	-501.2755126953125	1395.605834960938	-95.73509979248047	-370.8903503417969	1412.8837890625	-111.491325378418	-327.5548400878906	1296.988525390625	-203.1872253417969	-285.0462951660156	1083.833374023438	-227.2746734619141	-386.201904296875	1062.220581054688	-212.8228454589844	-221.8677978515625	889.1909790039062	-141.9294891357422	-230.8456115722656	869.5320434570312	-212.8230590820312	-255.625	997.9678344726562	-223.101806640625	-202.9146270751953	721.568603515625	-133.3248901367188	-219.0826263427734	789.3592529296875	-203.7394714355469	-196.3452911376953	801.6687622070312	-137.5675811767578	-535.9422607421875	1407.564453125	185.0786743164062	-584.0975341796875	1345.291381835938	245.7279510498047	-589.4013671875	1057.894653320312	305.1828918457031	-618.3990478515625	1036.301147460938	247.5680541992188	-455.5152282714844	872.869384765625	316.8324584960938	-537.6054077148438	847.1548461914062	339.1038818359375	-583.7701416015625	999.9912109375	317.2897033691406	-436.8108215332031	715.2592163085938	332.8697204589844	-434.5509948730469	776.0809326171875	340.1822204589844	-508.9466552734375	764.111328125	349.6034851074219	-498.241455078125	1633.993774414062	116.0337371826172	-304.6304626464844	1657.146606445312	46.44503784179688	-369.0119323730469	1659.369384765625	160.1955718994141	-423.8788452148438	1635.30078125	-46.21689987182617	-314.956787109375	854.8635864257812	-126.7301483154297	-581.906494140625	843.5534057617188	177.7066345214844	-461.0288391113281	883.4937744140625	188.8749847412109	-301.0935363769531	897.23681640625	-6.143063068389893	-189.1655120849609	460.6672058105469	-15.46504688262939	-206.9485626220703	615.9105224609375	-42.69523239135742	-190.6964111328125	44.73232650756836	-44.03081512451172	-169.9487457275391	304.9925537109375	-26.60319900512695	-50.71075820922852	82.59371948242188	134.8625030517578	-125.8134841918945	69.01277160644531	119.0391387939453	-65.89590454101562	71.77830505371094	26.19140625	-262.9930114746094	38.82294082641602	-34.24977493286133	-555.42919921875	449.350341796875	111.5111846923828	-546.8189086914062	704.0320434570312	189.6989288330078	-619.2625122070312	43.93270492553711	21.45613479614258	-569.7538452148438	301.9951477050781	94.03017425537109	-405.7679443359375	45.16534805297852	74.12046051025391	-447.5114440917969	49.64411163330078	13.49581623077393	-510.0932922363281	47.32985687255859	102.1511154174805	-659.8580932617188	37.03485488891602	-49.42903518676758	
297	2.96	-587.267578125	951.52978515625	-0.08844857662916183	-503.5606079101562	945.7677612304688	-116.1434097290039	-552.4815673828125	1053.553833007812	-29.54051208496094	-320.1550903320312	1238.901977539062	107.8569488525391	-566.50341796875	1172.799926757812	-36.01454162597656	-518.23583984375	1440.5283203125	11.0393705368042	-349.6142883300781	1352.940673828125	87.10581970214844	-618.9478149414062	1320.7568359375	64.15363311767578	-495.8967895507812	1394.893676757812	-93.31442260742188	-365.3721618652344	1411.932006835938	-108.7389221191406	-322.44873046875	1295.81494140625	-200.412353515625	-281.9542236328125	1082.146118164062	-224.7436370849609	-383.2891235351562	1061.900634765625	-210.0832061767578	-222.3064575195312	885.0008544921875	-142.1412200927734	-231.8766784667969	866.6220703125	-213.2959442138672	-254.0564270019531	995.7003784179688	-221.655517578125	-207.1682281494141	716.8258056640625	-136.272216796875	-221.9051971435547	786.013427734375	-205.4922637939453	-198.8191528320312	796.7652587890625	-139.1784362792969	-531.5436401367188	1406.7255859375	187.4100952148438	-580.0940551757812	1344.348022460938	247.7367401123047	-586.4496459960938	1056.517578125	305.6468200683594	-615.5902099609375	1035.792724609375	247.7778015136719	-455.3239440917969	869.26904296875	315.70751953125	-537.9017944335938	844.725830078125	337.721435546875	-581.6240234375	998.4617309570312	317.2607116699219	-439.4789428710938	711.147216796875	330.1367797851562	-436.0932922363281	771.84228515625	338.0369873046875	-510.6958618164062	761.1102905273438	347.3676147460938	-493.5308837890625	1633.238525390625	118.3153457641602	-299.8135681152344	1656.369262695312	48.91146087646484	-364.2987060546875	1658.750732421875	162.5810546875	-418.9771118164062	1634.3115234375	-43.83399963378906	-309.6597290039062	854.396240234375	-123.6390609741211	-578.3368530273438	842.9806518554688	179.6102752685547	-457.359375	882.5948486328125	191.3248596191406	-296.5642395019531	896.582275390625	-2.900434494018555	-183.7531890869141	460.7026062011719	-11.34979629516602	-202.5547790527344	615.5084838867188	-39.35589599609375	-175.6331481933594	44.81371688842773	-33.76157760620117	-160.7692260742188	305.6481628417969	-19.67856597900391	-39.15498733520508	85.88649749755859	147.0381469726562	-113.8045120239258	71.27436828613281	130.0578460693359	-52.30350112915039	74.24639129638672	38.20764541625977	-247.9683685302734	37.94313430786133	-25.14329719543457	-553.16552734375	448.8939514160156	112.6660614013672	-543.7188720703125	703.352294921875	191.3903350830078	-619.2225952148438	44.06559371948242	21.40459060668945	-568.3699340820312	301.662841796875	94.77295684814453	-405.6854553222656	45.0982780456543	74.12616729736328	-447.4544067382812	49.64034271240234	13.52810955047607	-510.1242370605469	47.29406356811523	102.1649322509766	-659.8026733398438	37.32241821289062	-49.55288314819336	
298	2.97	-582.5180053710938	951.0022583007812	1.833654165267944	-498.396240234375	945.1917724609375	-113.9371490478516	-547.8565673828125	1053.002685546875	-27.66845893859863	-315.5637512207031	1237.961669921875	110.8683242797852	-561.5379028320312	1172.122680664062	-33.88542175292969	-513.0557250976562	1439.796508789062	13.34489059448242	-344.81640625	1352.019287109375	89.98333740234375	-614.1209716796875	1320.140258789062	66.07559204101562	-490.4101257324219	1394.172485351562	-90.90699768066406	-359.7510375976562	1410.964599609375	-105.9845275878906	-317.2451171875	1294.633178710938	-197.6554870605469	-278.8250427246094	1080.472900390625	-222.2368621826172	-380.3414611816406	1061.591918945312	-207.3782653808594	-222.798828125	880.9418334960938	-142.3880310058594	-232.8983154296875	863.8526611328125	-213.7802124023438	-252.4769592285156	993.5003662109375	-220.2309722900391	-211.5174865722656	712.3292236328125	-139.2566680908203	-224.7415771484375	782.8834838867188	-207.2605743408203	-201.3771820068359	792.0509643554688	-140.8395538330078	-527.0504760742188	1405.873657226562	189.7246704101562	-576.024169921875	1343.397216796875	249.7328796386719	-583.4939575195312	1055.166015625	306.1192932128906	-612.77392578125	1035.324340820312	248.0001678466797	-455.212890625	865.7077026367188	314.5608520507812	-538.2708129882812	842.3793334960938	336.3487854003906	-579.4908447265625	996.9752197265625	317.2443237304688	-442.3296203613281	707.1258544921875	327.3884887695312	-437.7758483886719	767.6640625	335.8619384765625	-512.5721435546875	758.212890625	345.1344299316406	-488.7202453613281	1632.455444335938	120.6089324951172	-294.9108581542969	1655.565063476562	51.38106155395508	-359.5078430175781	1658.094970703125	164.9778900146484	-413.9743957519531	1633.30712890625	-41.4516716003418	-304.3253479003906	853.9098510742188	-120.566162109375	-574.6749267578125	842.3929443359375	181.5012359619141	-453.4798583984375	881.71240234375	193.8144073486328	-291.99755859375	895.9064331054688	0.3059768378734589	-178.3508605957031	460.7345886230469	-7.298632144927979	-198.1221618652344	615.078857421875	-36.06747055053711	-161.2396850585938	45.13776016235352	-23.74752616882324	-151.8817901611328	306.3763122558594	-12.91539478302002	-28.2240104675293	89.24819946289062	158.8125915527344	-102.3938522338867	73.61798858642578	140.7276916503906	-39.43770599365234	76.76564788818359	49.8687858581543	-233.6000671386719	37.36624526977539	-16.24118041992188	-550.8392333984375	448.4358825683594	113.8369064331055	-540.5433349609375	702.6658325195312	193.0912017822266	-619.1771850585938	44.20268630981445	21.36351013183594	-566.9603271484375	301.33544921875	95.54444122314453	-405.59326171875	45.02774429321289	74.13645935058594	-447.4153442382812	49.6484260559082	13.58127593994141	-510.15869140625	47.25827789306641	102.1912231445312	-659.73486328125	37.64658355712891	-49.6678466796875	
